<?xml version="1.0" standalone="no"?>
<!DOCTYPE svg PUBLIC "-//W3C//DTD SVG 20010904//EN"
 "http://www.w3.org/TR/2001/REC-SVG-20010904/DTD/svg10.dtd">
<svg version="1.0" xmlns="http://www.w3.org/2000/svg"
 width="512.000000pt" height="512.000000pt" viewBox="0 0 512.000000 512.000000"
 preserveAspectRatio="xMidYMid meet">
<metadata>
Created by potrace 1.14, written by Peter Selinger 2001-2017
</metadata>
<g transform="translate(0.000000,512.000000) scale(0.100000,-0.100000)"
fill="#000000" stroke="none">
<path d="M3400 4844 c-80 -19 -158 -36 -175 -39 -16 -3 -38 -8 -47 -11 -9 -3
-25 -6 -35 -9 -10 -2 -79 -17 -153 -34 -180 -41 -500 -112 -523 -116 -10 -3
-26 -6 -35 -9 -9 -3 -28 -7 -42 -10 -30 -5 -287 -62 -500 -110 -85 -19 -166
-37 -180 -40 -14 -3 -43 -10 -65 -15 -22 -5 -51 -12 -65 -15 -14 -3 -54 -11
-90 -19 -429 -96 -669 -149 -685 -152 -11 -3 -38 -9 -60 -14 -22 -6 -134 -31
-250 -57 -116 -25 -221 -51 -235 -57 -35 -17 -49 -51 -39 -95 4 -20 10 -48 13
-62 2 -14 21 -97 43 -185 l38 -160 5 -1237 c5 -1171 6 -1238 23 -1255 17 -17
66 -18 837 -21 l820 -2 6 -25 c8 -31 39 -51 93 -58 85 -11 135 -69 136 -156 0
-48 -5 -63 -29 -95 -31 -42 -78 -66 -126 -66 -21 0 -39 -9 -56 -27 l-25 -27 3
-193 c3 -169 5 -195 21 -210 17 -17 79 -18 1160 -21 628 -1 1152 0 1164 3 41
10 53 53 53 190 l0 125 253 0 c330 1 301 -21 305 224 4 231 1 239 -89 257 -83
16 -134 63 -144 132 -14 95 42 167 145 187 87 16 90 23 90 230 0 96 -3 185 -6
198 -14 51 -22 52 -589 52 l-525 0 0 884 c0 517 -4 895 -9 909 -5 13 -18 28
-28 33 -10 5 -603 11 -1338 14 l-1320 5 175 38 c95 22 181 40 189 42 9 2 160
36 336 75 176 40 349 79 385 87 36 8 76 16 90 19 14 3 135 30 270 60 135 31
256 58 269 60 25 5 123 27 216 49 60 14 322 72 360 79 11 2 72 16 135 30 210
48 209 46 160 250 -15 63 -38 166 -55 246 -24 108 -28 121 -52 140 -33 26 -49
25 -223 -16z m134 -226 c10 -46 20 -96 23 -112 3 -16 9 -40 14 -53 20 -53 14
-60 -63 -78 -40 -9 -84 -19 -98 -21 -14 -3 -40 -9 -57 -14 -32 -8 -34 -6 -85
58 -29 37 -55 69 -58 72 -3 3 -25 30 -50 60 -25 30 -49 58 -55 63 -18 13 9 22
167 56 84 18 161 36 172 40 10 4 31 8 46 9 26 2 27 -1 44 -80z m-503 -183 c59
-72 108 -133 108 -137 1 -6 -20 -12 -79 -22 -14 -2 -64 -13 -111 -25 -48 -12
-89 -21 -92 -21 -4 0 -56 62 -118 138 -71 86 -107 138 -98 140 8 2 68 16 134
32 66 15 126 27 134 27 8 -1 63 -61 122 -132z m-471 -101 c61 -75 107 -140
103 -144 -7 -6 -97 -27 -189 -44 -12 -3 -37 -9 -57 -14 -34 -9 -36 -8 -70 37
-20 25 -46 58 -59 72 -13 15 -34 41 -48 59 -14 18 -37 47 -52 64 -15 17 -28
35 -28 40 0 5 3 7 6 4 3 -3 29 0 57 8 29 7 66 16 82 19 17 3 39 8 50 11 38 9
90 22 92 23 1 1 52 -60 113 -135z m-466 -108 c59 -71 106 -132 106 -136 0 -5
-136 -40 -216 -56 -6 -1 -25 -5 -40 -8 -28 -6 -35 0 -124 110 -52 64 -103 127
-113 139 l-17 23 52 12 c29 6 64 14 78 16 14 3 48 10 75 18 85 22 85 22 199
-118z m-468 -104 l111 -137 -41 -13 c-22 -7 -54 -15 -69 -17 -15 -3 -56 -12
-90 -20 -34 -8 -69 -15 -78 -15 -8 0 -66 61 -127 135 -111 134 -112 135 -84
142 35 9 255 61 262 61 3 1 55 -61 116 -136z m-515 -49 c35 -43 66 -80 69 -83
19 -18 80 -100 80 -108 0 -6 -147 -46 -167 -45 -1 0 -28 -5 -60 -13 -31 -7
-58 -12 -58 -11 -2 4 -130 162 -135 167 -3 3 -24 28 -47 56 l-42 51 132 31
c73 17 140 31 149 31 9 1 44 -33 79 -76z m-524 -38 c27 -28 212 -259 209 -262
-1 -2 -74 -19 -161 -38 -87 -20 -162 -38 -167 -41 -4 -3 -8 -3 -8 0 0 8 -59
277 -66 297 -3 13 4 18 31 23 45 9 37 7 92 22 26 7 49 13 51 13 2 1 10 -6 19
-14z m163 -675 l-80 -160 -95 0 -95 0 0 160 0 160 175 0 175 0 -80 -160z m480
0 l-80 -160 -150 0 -150 0 80 160 80 160 150 0 150 0 -80 -160z m480 0 l-80
-160 -150 0 -150 0 80 160 80 160 150 0 150 0 -80 -160z m480 0 l-80 -160
-150 0 -150 0 80 160 80 160 150 0 150 0 -80 -160z m480 0 l-80 -160 -150 0
-150 0 80 160 80 160 150 0 150 0 -80 -160z m480 0 l-80 -160 -150 0 -150 0
80 160 80 160 150 0 150 0 -80 -160z m530 0 l0 -160 -215 0 -215 0 80 160 80
160 135 0 135 0 0 -160z m0 -920 l0 -600 -535 0 -536 0 -24 -26 c-24 -26 -25
-33 -25 -160 l0 -134 -245 0 c-257 0 -293 -5 -309 -45 -3 -9 -6 -57 -6 -106
l0 -89 -760 0 -760 0 0 880 0 880 1600 0 1600 0 0 -600z m1118 -847 l-3 -86
-41 -14 c-53 -18 -132 -94 -164 -158 -35 -70 -35 -197 0 -270 38 -78 102 -135
183 -165 27 -9 27 -11 27 -95 l0 -85 -244 0 c-134 0 -258 3 -276 6 -52 11
-107 70 -115 126 -15 98 37 166 143 187 90 17 92 23 92 233 0 95 -3 183 -6
196 -15 53 2 52 -869 52 l-805 0 0 80 0 80 1040 0 1041 0 -3 -87z m-1518 -713
l0 -480 -560 0 -560 0 0 83 0 83 52 24 c65 29 126 89 158 155 34 72 34 198 0
270 -32 66 -93 126 -158 155 l-52 24 0 83 0 83 560 0 560 0 0 -480z m400 438
c0 -64 10 -87 42 -104 66 -34 118 9 118 96 l0 50 200 0 201 0 -3 -87 c-3 -86
-3 -86 -33 -96 -154 -50 -242 -244 -184 -407 29 -83 107 -162 184 -187 30 -10
30 -10 33 -96 l3 -87 -201 0 -200 0 0 48 c0 59 -17 93 -53 105 -64 21 -107
-22 -107 -108 l0 -45 -120 0 -120 0 0 480 0 480 120 0 120 0 0 -42z"/>
<path d="M1635 2858 c-117 -39 -192 -106 -243 -216 -22 -48 -27 -71 -27 -147
0 -81 3 -97 32 -155 36 -74 40 -80 267 -295 93 -88 214 -204 270 -257 101 -98
144 -122 179 -101 8 4 55 46 104 93 49 47 170 162 268 255 239 227 242 230
278 305 29 59 32 74 31 155 0 80 -4 99 -31 156 -45 97 -122 165 -238 210 -48
19 -178 20 -238 2 -59 -17 -138 -62 -172 -98 -29 -32 -35 -32 -79 9 -104 95
-267 129 -401 84z m235 -163 c17 -9 63 -45 101 -81 103 -94 119 -94 217 0 87
84 124 101 212 100 139 -1 222 -74 237 -207 9 -79 -25 -132 -173 -272 -152
-143 -175 -165 -287 -272 -47 -46 -91 -83 -97 -83 -5 0 -25 14 -43 31 -148
142 -353 337 -404 384 -70 64 -113 140 -113 195 0 98 69 189 168 221 39 12
145 3 182 -16z"/>
<path d="M3722 1034 c-28 -13 -42 -63 -42 -151 0 -111 6 -130 42 -149 38 -20
82 -10 103 23 23 34 18 234 -6 258 -16 17 -75 28 -97 19z"/>
</g>
</svg>
